<svg width="20"  height="20" viewBox="0 0 20 20" fill="none" xmlns="http://www.w3.org/2000/svg">
<path d="M11.61 10.243C11.604 10.5598 11.504 10.8677 11.3228 11.1276C11.1416 11.3875 10.8873 11.5878 10.5921 11.703C10.297 11.8182 9.97428 11.8432 9.66491 11.7748C9.35554 11.7064 9.07343 11.5477 8.85436 11.3188C8.63529 11.0899 8.48911 10.8011 8.43435 10.4891C8.3796 10.177 8.41873 9.85567 8.54679 9.56586C8.67485 9.27605 8.88607 9.03079 9.15368 8.86116C9.4213 8.69153 9.73324 8.60518 10.05 8.61304C10.4709 8.62863 10.8692 8.80754 11.1604 9.11182C11.4516 9.41611 11.6129 9.82186 11.61 10.243Z" fill="white"/>
<path d="M12.763 5.23315H7.338C6.8012 5.23315 6.28638 5.4464 5.90681 5.82597C5.52724 6.20554 5.314 6.72036 5.314 7.25715V12.8042C5.314 13.07 5.36635 13.3331 5.46806 13.5787C5.56978 13.8243 5.71887 14.0474 5.90681 14.2353C6.09476 14.4233 6.31788 14.5724 6.56344 14.6741C6.80901 14.7758 7.0722 14.8282 7.338 14.8282H12.763C13.0288 14.8282 13.292 14.7758 13.5375 14.6741C13.7831 14.5724 14.0062 14.4233 14.1942 14.2353C14.3821 14.0474 14.5312 13.8243 14.6329 13.5787C14.7346 13.3331 14.787 13.07 14.787 12.8042V7.26715C14.788 7.00059 14.7365 6.73644 14.6353 6.48984C14.534 6.24324 14.3852 6.01904 14.1971 5.83009C14.0091 5.64114 13.7856 5.49115 13.5395 5.38871C13.2935 5.28628 13.0296 5.23342 12.763 5.23315ZM10.05 12.9562C9.51296 12.9683 8.98449 12.8201 8.53203 12.5306C8.07958 12.241 7.72365 11.8232 7.50968 11.3305C7.29571 10.8378 7.23341 10.2925 7.33071 9.76421C7.42802 9.23593 7.68052 8.74862 8.056 8.36447C8.43148 7.98032 8.9129 7.71676 9.43883 7.60743C9.96475 7.49809 10.5113 7.54794 11.0088 7.7506C11.5063 7.95327 11.9321 8.29957 12.2319 8.7453C12.5317 9.19103 12.6919 9.71598 12.692 10.2532C12.6961 10.6041 12.631 10.9525 12.5004 11.2783C12.3698 11.6041 12.1764 11.901 11.931 12.152C11.6857 12.403 11.3933 12.6033 11.0705 12.7412C10.7478 12.8792 10.401 12.9522 10.05 12.9562ZM12.986 7.55115C12.92 7.55117 12.8547 7.53801 12.7938 7.51247C12.733 7.48692 12.6779 7.44948 12.6317 7.40236C12.5855 7.35524 12.5492 7.29937 12.5248 7.23804C12.5005 7.1767 12.4887 7.11113 12.49 7.04515C12.49 6.91096 12.5433 6.78225 12.6382 6.68736C12.7331 6.59247 12.8618 6.53915 12.996 6.53915C13.1302 6.53915 13.2589 6.59247 13.3538 6.68736C13.4487 6.78225 13.502 6.91096 13.502 7.04515C13.504 7.11659 13.4905 7.18761 13.4625 7.25336C13.4345 7.3191 13.3926 7.37802 13.3397 7.42607C13.2868 7.47413 13.2241 7.51018 13.156 7.53177C13.0879 7.55336 13.0159 7.55997 12.945 7.55115H12.986Z" fill="white"/>
<path d="M10.05 0.000125174C7.39784 -0.0131357 4.84903 1.02771 2.96429 2.8937C1.07955 4.75969 0.0132639 7.29796 3.10359e-06 9.95012C-0.0132577 12.6023 1.02759 15.1511 2.89358 17.0358C4.75957 18.9206 7.29784 19.9869 9.95 20.0001C11.2632 20.0067 12.5649 19.7545 13.7806 19.2581C14.9964 18.7616 16.1025 18.0305 17.0357 17.1065C17.9689 16.1826 18.7111 15.0839 19.2197 13.8732C19.7283 12.6624 19.9934 11.3633 20 10.0501C20.0066 8.73691 19.7544 7.43525 19.2579 6.21948C18.7615 5.00372 18.0304 3.89764 17.1064 2.96441C16.1825 2.03118 15.0838 1.28908 13.873 0.780464C12.6623 0.271851 11.3632 0.00669127 10.05 0.000125174ZM16.123 12.7021C16.1258 13.1508 16.0395 13.5955 15.8691 14.0105C15.6988 14.4256 15.4477 14.8026 15.1305 15.1199C14.8133 15.4372 14.4363 15.6884 14.0213 15.8589C13.6063 16.0294 13.1616 16.1158 12.713 16.1131H7.389C6.94044 16.1156 6.49584 16.0292 6.08093 15.8587C5.66601 15.6882 5.28903 15.4372 4.9718 15.12C4.65457 14.8029 4.40339 14.426 4.23281 14.0111C4.06222 13.5963 3.97562 13.1517 3.978 12.7031V7.37813C3.97522 6.92949 4.06151 6.48477 4.23188 6.06973C4.40225 5.6547 4.6533 5.27761 4.97049 4.96033C5.28769 4.64304 5.6647 4.39187 6.07969 4.22138C6.49467 4.05089 6.93937 3.96447 7.388 3.96713H12.713C13.1616 3.96447 13.6062 4.05086 14.0211 4.22129C14.436 4.39172 14.813 4.6428 15.1302 4.95997C15.4473 5.27715 15.6984 5.65412 15.8688 6.06904C16.0393 6.48396 16.1257 6.92858 16.123 7.37713V12.7021Z" fill="white"/>
</svg>
