<svg width="20" height="20" viewBox="0 0 20 20" fill="none" xmlns="http://www.w3.org/2000/svg">
<path d="M11.6101 10.2431C11.6041 10.5599 11.5041 10.8678 11.3229 11.1277C11.1417 11.3876 10.8874 11.5879 10.5923 11.7031C10.2971 11.8183 9.9744 11.8433 9.66503 11.7749C9.35566 11.7065 9.07356 11.5478 8.85448 11.3189C8.63541 11.09 8.48923 10.8012 8.43448 10.4891C8.37972 10.1771 8.41885 9.85577 8.54691 9.56596C8.67497 9.27615 8.8862 9.03088 9.15381 8.86125C9.42142 8.69163 9.73337 8.60527 10.0501 8.61313C10.471 8.62872 10.8693 8.80763 11.1605 9.11192C11.4517 9.41621 11.613 9.82195 11.6101 10.2431Z" fill="black"/>
<path d="M12.7632 5.23312H7.33821C6.80141 5.23312 6.2866 5.44637 5.90702 5.82594C5.52745 6.20551 5.31421 6.72033 5.31421 7.25712V12.8041C5.31421 13.0699 5.36656 13.3331 5.46828 13.5787C5.56999 13.8242 5.71908 14.0474 5.90702 14.2353C6.09497 14.4233 6.31809 14.5723 6.56366 14.6741C6.80922 14.7758 7.07241 14.8281 7.33821 14.8281H12.7632C13.029 14.8281 13.2922 14.7758 13.5378 14.6741C13.7833 14.5723 14.0064 14.4233 14.1944 14.2353C14.3823 14.0474 14.5314 13.8242 14.6331 13.5787C14.7349 13.3331 14.7872 13.0699 14.7872 12.8041V7.26712C14.7883 7.00056 14.7367 6.73641 14.6355 6.48981C14.5343 6.24321 14.3854 6.01901 14.1973 5.83006C14.0093 5.64111 13.7859 5.49111 13.5398 5.38868C13.2937 5.28625 13.0298 5.23338 12.7632 5.23312ZM10.0502 12.9561C9.51317 12.9682 8.98471 12.8201 8.53225 12.5305C8.07979 12.241 7.72387 11.8232 7.5099 11.3305C7.29593 10.8378 7.23362 10.2925 7.33092 9.76418C7.42823 9.2359 7.68073 8.74859 8.05621 8.36444C8.43169 7.98029 8.91311 7.71673 9.43904 7.6074C9.96497 7.49806 10.5115 7.54791 11.009 7.75057C11.5065 7.95324 11.9323 8.29954 12.2321 8.74527C12.5319 9.191 12.6921 9.71595 12.6922 10.2531C12.6963 10.6041 12.6312 10.9525 12.5006 11.2783C12.3701 11.6041 12.1766 11.901 11.9312 12.152C11.6859 12.403 11.3935 12.6032 11.0707 12.7412C10.748 12.8792 10.4012 12.9522 10.0502 12.9561ZM12.9862 7.55112C12.9202 7.55114 12.8549 7.53798 12.7941 7.51243C12.7332 7.48689 12.6781 7.44945 12.6319 7.40233C12.5857 7.35521 12.5494 7.29934 12.5251 7.23801C12.5007 7.17667 12.4889 7.1111 12.4902 7.04512C12.4902 6.91092 12.5435 6.78222 12.6384 6.68733C12.7333 6.59243 12.862 6.53912 12.9962 6.53912C13.1304 6.53912 13.2591 6.59243 13.354 6.68733C13.4489 6.78222 13.5022 6.91092 13.5022 7.04512C13.5042 7.11656 13.4907 7.18758 13.4627 7.25333C13.4347 7.31907 13.3928 7.37799 13.3399 7.42604C13.287 7.4741 13.2244 7.51015 13.1562 7.53174C13.0881 7.55333 13.0161 7.55994 12.9452 7.55112H12.9862Z" fill="black"/>
<path d="M10.0501 0.000125174C7.39796 -0.0131357 4.84915 1.02771 2.96441 2.8937C1.07967 4.75969 0.013386 7.29796 0.000125174 9.95012C-0.0131357 12.6023 1.02771 15.1511 2.8937 17.0358C4.75969 18.9206 7.29796 19.9869 9.95012 20.0001C11.2633 20.0067 12.565 19.7545 13.7808 19.2581C14.9965 18.7616 16.1026 18.0305 17.0358 17.1065C17.9691 16.1826 18.7112 15.0839 19.2198 13.8732C19.7284 12.6624 19.9936 11.3633 20.0001 10.0501C20.0067 8.73691 19.7545 7.43525 19.2581 6.21948C18.7616 5.00372 18.0305 3.89764 17.1065 2.96441C16.1826 2.03118 15.0839 1.28908 13.8732 0.780464C12.6624 0.271851 11.3633 0.00669127 10.0501 0.000125174ZM16.1231 12.7021C16.1259 13.1508 16.0396 13.5955 15.8693 14.0105C15.6989 14.4256 15.4478 14.8026 15.1306 15.1199C14.8134 15.4372 14.4364 15.6884 14.0214 15.8589C13.6065 16.0294 13.1618 16.1158 12.7131 16.1131H7.38913C6.94057 16.1156 6.49596 16.0292 6.08105 15.8587C5.66614 15.6882 5.28915 15.4372 4.97192 15.12C4.65469 14.8029 4.40351 14.426 4.23293 14.0111C4.06234 13.5963 3.97574 13.1517 3.97813 12.7031V7.37813C3.97534 6.92949 4.06163 6.48477 4.232 6.06973C4.40237 5.6547 4.65343 5.27761 4.97062 4.96033C5.28781 4.64304 5.66482 4.39187 6.07981 4.22138C6.49479 4.05089 6.93949 3.96447 7.38812 3.96713H12.7131C13.1617 3.96447 13.6063 4.05086 14.0212 4.22129C14.4361 4.39172 14.8131 4.6428 15.1303 4.95997C15.4475 5.27715 15.6985 5.65412 15.869 6.06904C16.0394 6.48396 16.1258 6.92858 16.1231 7.37713V12.7021Z" fill="black"/>
</svg>
