<svg width="20" height="20" viewBox="0 0 20 20" fill="none" xmlns="http://www.w3.org/2000/svg">
<path d="M11.6029 9.433L9.3569 8.385C9.1609 8.294 8.9999 8.396 8.9999 8.613V10.587C8.9999 10.804 9.1609 10.906 9.3569 10.815L11.6019 9.767C11.7989 9.675 11.7989 9.525 11.6029 9.433ZM9.9999 0C4.6979 0 0.399902 4.298 0.399902 9.6C0.399902 14.902 4.6979 19.2 9.9999 19.2C15.3019 19.2 19.5999 14.902 19.5999 9.6C19.5999 4.298 15.3019 0 9.9999 0ZM9.9999 13.5C5.0859 13.5 4.9999 13.057 4.9999 9.6C4.9999 6.143 5.0859 5.7 9.9999 5.7C14.9139 5.7 14.9999 6.143 14.9999 9.6C14.9999 13.057 14.9139 13.5 9.9999 13.5Z" fill="black"/>
</svg>
