<svg width="20" height="20" viewBox="0 0 20 20" fill="none" xmlns="http://www.w3.org/2000/svg">
<path d="M11.603 9.433L9.35699 8.385C9.16099 8.294 8.99999 8.396 8.99999 8.613V10.587C8.99999 10.804 9.16099 10.906 9.35699 10.815L11.602 9.767C11.799 9.675 11.799 9.525 11.603 9.433ZM9.99999 0C4.69799 0 0.399994 4.298 0.399994 9.6C0.399994 14.902 4.69799 19.2 9.99999 19.2C15.302 19.2 19.6 14.902 19.6 9.6C19.6 4.298 15.302 0 9.99999 0ZM9.99999 13.5C5.08599 13.5 4.99999 13.057 4.99999 9.6C4.99999 6.143 5.08599 5.7 9.99999 5.7C14.914 5.7 15 6.143 15 9.6C15 13.057 14.914 13.5 9.99999 13.5Z" fill="white"/>
</svg>
